<svg version="1.2" xmlns="http://www.w3.org/2000/svg" viewBox="0 0 550 550" width="550" height="550">
	<title>New Project</title>
	<defs>
		<radialGradient id="g1" cx="0" cy="0" r="1" gradientUnits="userSpaceOnUse" gradientTransform="matrix(-8.052,1.568,-1.568,-8.052,286.425,367.105)">
			<stop offset="0" stop-color="#440622"/>
			<stop offset="1" stop-color="#8d0b19"/>
		</radialGradient>
		<linearGradient id="g2" x2="1" gradientUnits="userSpaceOnUse" gradientTransform="matrix(-108.525,320.89,-125.809,-42.548,267.305,58.341)">
			<stop offset=".117" stop-color="#ffc567"/>
			<stop offset=".39" stop-color="#e7761f"/>
			<stop offset=".736" stop-color="#fcb564"/>
		</linearGradient>
		<linearGradient id="g3" x2="1" gradientUnits="userSpaceOnUse" gradientTransform="matrix(-39.283,101.645,-64.462,-24.913,454.279,81.955)">
			<stop offset="0" stop-color="#ffc567"/>
			<stop offset="1" stop-color="#fcb564"/>
		</linearGradient>
		<linearGradient id="g4" x2="1" gradientUnits="userSpaceOnUse" gradientTransform="matrix(-33.143,85.758,-65.005,-25.123,438.812,100.838)">
			<stop offset="0" stop-color="#ffc567"/>
			<stop offset=".433" stop-color="#e7761f"/>
			<stop offset="1" stop-color="#fcb564"/>
		</linearGradient>
		<linearGradient id="g5" x2="1" gradientUnits="userSpaceOnUse" gradientTransform="matrix(-36.803,147.978,-42.137,-10.48,355.459,19.499)">
			<stop offset="0" stop-color="#ffc567"/>
			<stop offset=".875" stop-color="#e7761f"/>
			<stop offset="1" stop-color="#fcb564"/>
		</linearGradient>
	</defs>
	<style>
		.s0 { fill: #000000 } 
		.s1 { fill: #f7a70e } 
		.s2 { fill: #f4ab29 } 
		.s3 { opacity: .6;fill: #b95f23 } 
		.s4 { fill: #fafae8 } 
		.s5 { fill: #fcf163 } 
		.s6 { fill: #523007 } 
		.s7 { fill: #b31029 } 
		.s8 { fill: #fdfcf5 } 
		.s9 { fill: #c6c1c0 } 
		.s10 { fill: #f8f1ad } 
		.s11 { fill: url(#g1) } 
		.s12 { fill: #f8c72a } 
		.s13 { fill: #943300 } 
		.s14 { fill: url(#g2) } 
		.s15 { fill: url(#g3) } 
		.s16 { fill: url(#g4) } 
		.s17 { fill: url(#g5) } 
		.s18 { fill: #df0c2f } 
		.s19 { fill: #dd0029 } 
		.s20 { fill: #e81f28 } 
		.s21 { fill: #fef3b9 } 
		.s22 { fill: #f6de82 } 
		.s23 { fill: #f6dd8a } 
		.s24 { fill: #bc2b17 } 
		.s25 { fill: #b5603b } 
		.s26 { fill: #6c1530 } 
		.s27 { fill: #c67747 } 
	</style>
	<g id="&lt;Group&gt;">
		<g id="&lt;Group&gt;">
			<path id="&lt;Path&gt;" class="s0" d="m58.4 361.7q0.8-2.2 1.6-4.3 0.5-1.7 1.1-3.3 1.7-4.5 3.5-8.9 0.4-0.8 0.7-1.6 1.5-3.6 3-7 0.8-1.8 1.6-3.5 1-2.3 2.1-4.5c2.9-6.1 5.8-11.8 8.6-17 3.3-6.1 5.8-11 7.7-15 4.8-10.3 5.8-14.8 6.7-19 0.3-1.6 0.7-3.3 1.2-5.2q0.4-1.6 1.1-3.6c3.4-9.5 8.3-12.2 14.4-14.7 2.7-1.2 5.5-2.3 9.6-5.5 11.5-8.7 22.2-20 25.6-24.2 2.9-3.5 7.6-6.3 18-8.6-0.7-2.9 0-6.1 1.9-8.5q4.6-5.8 9.2-11.5l5.4-6.7c3.9-4.9 7.6-9.6 11.2-14.3q0 0 0-0.1 0.1-0.1 0.2-0.2 3.1-4.2 5.9-8.5c1.5-2.3 2.9-4.6 4.4-7 2.4-3.9 4.8-7.8 7.6-11.7q1.3-1.9 2.8-3.8c7.5-9.5 16-15.8 25.2-18.8q1.8-0.6 3.7-1c3.7-0.8 7.7-1.2 12.4-1.2q0 0 0 0 0 0 0 0c3.3 0 6.5 0.2 9.3 0.4q0.6 0 1.2 0.1h0.8c7 0.5 14.2 1 21.5 2.8 0.1 0 1.3 0.3 1.6 0.4 4.1 1 9.9 2.4 13.5 6.6 4.3 0.2 9.1 0.7 13.7 2.3 5.8 1.9 10.7 5.1 14.7 7.9 4.9 3.5 9.6 7.2 14 11.3q0 0 0 0 0.4-0.1 0.7-0.2 0.2 0 0.4 0 0.6-0.1 1.2-0.1c1.8 0 3.5 0.5 5.1 1.5 5.8 3.5 14.1 9.3 19.4 18 5.3 8.6 6.7 18.4 7.5 26.8q0.1 1.8 0.3 3.5c0.4 4.5 0.8 9.4 0.8 14.5 0 3.1-0.2 6.2-0.6 9.3-0.4 2.9-1.3 6.9-3.8 10.5 4 1.6 8.2 3.8 11.8 7.4 0.6 0.7 2.6 2.8 3.2 6.2 0.5 2.8-0.2 5-0.5 5.8-1 3.1-2.4 6-4.2 8.6-1 1.6-2.5 2.8-4.1 3.5q-0.3 0.6-0.5 1c-2.2 4.5-4.9 8.8-7.9 12.8q0 0 0 0.1 0 0 0 0 0 0 0 0 0 0.1-0.1 0.1-0.3 0.5-0.8 1.1 0 0 0 0-0.5 0.7-1 1.3-0.8 1-1.8 1.7c-0.1 0.1-2 3.3-2 3.3q-0.1 0-0.1 0.1c-0.4 0.7-0.8 1.2-0.8 1.3-1.6 2.6-3.4 5.5-5.6 8.2l37.1-5.2c4.3-12.5 14.6-42.7 18.8-58.2 3.1-11.5 5.8-23.2 7.5-31.1-19.5-6.7-24.9-25.8-28-36.9l-0.5-1.7c-0.8-2.8-2.1-5.6-3.5-8.6-3.8-7.9-8.4-17.7-3.4-31.1 4-10.4 12.8-16.3 24.4-16.3 2 0 4.1 0.1 6 0.5-0.9-8.9-0.4-18.4 1.5-28.4 2.3-12.5 6.6-24.2 10-33.1 1.2-2.9 2.3-5.7 4.1-8.5 2.7-4.2 6-7.1 10-8.6q2.8-1 5.7-1c10.8 0 17.2 10.7 18.1 21.2 0.3 4.6-0.3 9-1 13-1.3 7-3 14-4.7 20.7q0.7-0.1 1.5-0.1c3 0 7.4 0.4 11.9 3.5 4 2.8 6.9 7.1 8 11.8 2.5 0.6 4.4 1.8 5.6 2.4 3.4 2.1 6 4.9 7.4 8.2 1.5 3.5 1.4 6.8 1.4 9q0 0.5-0.1 1.3c4.3 1.8 6.8 4.6 8.2 6.9 4.8 7.6 3.4 17.5 0 30-3.1 11.3-8.1 18.5-13.4 26.1-2 2.9-4 5.9-6.2 9.3-5.4 8.7-13 13.6-19.9 15.7-5.1 31.3-15.2 71.2-15.7 73-4 15.7-11.4 39-14.7 44.5-3.2 5.4-9.9 7.6-20 10.9-5.4 1.7-11.5 3.7-16 5.9-12.2 6.1-54 20.1-55.7 20.7q-1.6 0.5-3.1 0.5c-3 0-5.9-1.4-7.8-3.8-1.1-1.3-11.9 9.1-12.4 11.2-1.2 5.5-3.4 10.2-6.4 13.9-1.8 2.2-3.9 4.1-6.4 5.6-1.7 1.1-3.7 2-6 2.7q-0.8 0.3-1.7 0.5c-0.3 6.3-2.1 21-11.8 33.6q0 0 0 0.1 0 0 0 0 0 0 0 0-0.9 1.1-1.9 2.3 0 0.1-0.1 0.1-0.9 1.1-1.8 2.1-0.2 0.2-0.3 0.4-0.3 0.3-0.6 0.7-0.3 0.2-0.5 0.4-1 1.1-2.1 2.2-0.2 0.2-0.3 0.4-0.1 0-0.2 0.1-1.3 1.3-2.7 2.6-0.1 0.2-0.3 0.3-1.3 1.2-2.6 2.4-0.2 0.1-0.3 0.3-1.4 1.2-2.8 2.5c-3.1 2.7-6 5.4-8.9 8.3q-0.1 0-0.1 0.1c-1.8 1.7-3.5 3.6-5.1 5.6q-0.8 0.9-1.5 1.7c-1.4 1.8-2.7 3.6-3.9 5.5-8.6 13.5-20.5 19.6-31 25-5.6 2.9-11 5.6-15.8 9.4-12.2 9.5-24.1 17.6-45.2 20.6-6 0.9-12.4 1.3-19.5 1.3-2.6 0-5.2 0-7.9-0.1-20.1-0.8-41.4-11.9-58.5-30.5-16.5-18-27-40.4-28.8-61.7-0.4-3.8-0.5-7.7-0.5-11.6 0.2-20 4.7-40.5 11.1-59.4z"/>
		</g>
		<path id="&lt;Path&gt;" class="s1" d="m57.2 421.2q-0.1 5.4 0.4 10.7c3.3 39.5 40.6 81.7 77.9 83.1 10.1 0.4 18.5 0 25.6-1 19.3-2.8 29.6-10.2 40.6-18.7 15.1-11.8 33.2-14.2 44.6-31.9 1.9-3 3.9-5.7 6-8.2 8.6-10.4 18.2-16.9 26.2-25.6q2.2-2.3 4.2-4.9c10.4-13.7 9.8-30.5 9.8-30.5q-2.9 0.6-5.5 0.9c-15.1 1.5-23.3-5.2-27.3-13.1-2-4.1-3-8.4-3.2-12.3q-0.1-2.1 0.1-4c1-11.8 11.4-18.9 18.5-20.5 6.7-1.5 12.7 3.9 27.7 4.6q1.8 0.1 3.9 0.1c17.9-0.2 28.6 0.5 31-4.7 2.4-5.2-1-8.9-1-8.9l-15 0.8-29.5 1.6c0 0 6-7.2 15.9-12 5.8-2.7 15.4-1.6 22.6-0.1 5.2 1 9 2.3 9 2.3 0 0 2.3-10.4 2-25.6-0.2-15.3-8.9-29.6-8.9-29.6-3.1-3.9-7.3-8.1-12.1-12.2-9-7.7-20.3-15.3-30.6-20.9-2.6-1.4-5.2-2.7-7.6-3.9-3.7-1.7-7.3-3.2-10.3-4.1-13.1-4.1-39.1-8.9-60.4-10.3-6.9-0.5-13.3-0.6-18.7-0.1-21.8 1.6-35 4.2-38.6 8.5-3.5 4.3-14.7 16.2-27.2 25.8-12.5 9.5-17 5.2-20.7 15.6-3.7 10.5-0.2 12.5-17.3 44.2-15.6 28.9-31.9 68.3-32.1 104.9z"/>
		<path id="&lt;Path&gt;" class="s0" d="m213.8 249.6c0 0 25.1-6.9 42.8 4.3 17.6 11.2 16.7 32.4 17.7 43.9 1 11.4 2.2 16.8 0.9 21.5-1.2 4.7-3.5 7.6-3.5 7.6 0 0 3-22.9-8.4-44.3-11.5-21.4-27.1-34.2-49.5-33z"/>
		<path id="&lt;Path&gt;" class="s2" d="m228.9 265.8c3.5 0.9 6.8 2.4 10 4.2 2.4 1.4 4.8 2.9 6.6 5 2.2 2.5 3.4 5.7 4.5 8.9 2.4 7.2 4 14.7 4.9 22.2 0.6 6.1 0.8 12.3 2.8 18 2.1 5.7 6.4 11.1 12.4 12.3-2.2-0.4-4.1 1.4-5.6 3.1q-3.7 4.3-7.5 8.7c-2.7 3.1-5.8 6.4-9.9 7-4.7 0.7-9-2.5-13.2-4.6-2.6-1.4-5.4-2.4-8.1-3.6-16-7.2-28.8-21-34.7-37.4-1.2-3.3-2.2-6.8-2.4-10.3-0.6-11.3 7.6-22.5 18.5-25.4-0.5 0.1-4.4-2.5-5.3-2.8-2-0.6-4-0.8-6.1-0.7 10.9-3.2 21.6-7.6 33.1-4.6z"/>
		<path id="&lt;Path&gt;" class="s0" d="m296.1 311.3c0 0-11.5 19.2-24.3 22.5-12.8 3.3-19.5-4-21.3-13.3-1.7-9.4-1.8-26-10.3-37.4-8.6-11.4-31.6-23.2-48.8-10.1 0 0 6.7-0.3 8.8 0.7 0 0-0.6 5.5-5.3 9.3-4.8 3.8-3.6 21.5 1.3 35.8 4.8 14.3 20.2 34 39.4 23.1 0 0-21.5 4.2-20.9-15 0 0 7.2 5.1 27.4 10.7 20.3 5.5 34.8 9.6 54-26.3z"/>
		<path id="&lt;Path&gt;" class="s1" d="m199.5 297.5c0 4.3 0.9 8.6 2.9 12.4 1.2 2.3 2.8 4.3 4.5 6.2 4.5 5.1 10 9.6 16.7 11.2 2.9 0.6 5.9 0.7 8.9 1.1q0.2 0 0.5 0.1c3.8 0.5 7.6 1.6 11.1 3.2q0.1-3.5 0.3-7.1c0.1-1.5 0.1-3 0.1-4.6-0.1-1.8-0.5-3.7-0.8-5.5q-0.7-3.8-1.4-7.6c-0.4-2.3-0.9-4.7-1.8-6.8-2-4.3-5.9-7.4-8.7-11.1-2-2.7-3.6-5.8-5.8-8.3-3.2-3.7-9.4-5.7-14.5-4.9-1.5 0.3-2.8 0.7-4 1.5-2.4 1.4-3.9 3.9-5 6.4-2 4.3-3 9.1-3 13.8z"/>
		<path id="&lt;Path&gt;" class="s3" d="m199.5 297.5c0 4.3 0.9 8.6 2.9 12.4 1.2 2.3 2.8 4.3 4.5 6.2 4.5 5.1 10 9.6 16.7 11.2 2.9 0.6 5.9 0.7 8.9 1.1q0.2 0 0.5 0.1c3.8 0.5 7.6 1.6 11.1 3.2q0.1-3.5 0.3-7.1c0.1-1.5 0.1-3 0.1-4.6-0.1-1.8-0.5-3.7-0.8-5.5q-0.7-3.8-1.4-7.6c-0.4-2.3-0.9-4.7-1.8-6.8-2-4.3-5.9-7.4-8.7-11.1-2-2.7-3.6-5.8-5.8-8.3-3.2-3.7-9.4-5.7-14.5-4.9-1.5 0.3-2.8 0.7-4 1.5-2.4 1.4-3.9 3.9-5 6.4-2 4.3-3 9.1-3 13.8z"/>
		<path id="&lt;Path&gt;" class="s4" d="m199.5 297.5c0 4.3 0.9 8.6 2.9 12.4 1.2 2.3 2.8 4.3 4.5 6.2 4.5 5.1 10 9.6 16.7 11.2 2.9 0.6 5.9 0.7 8.9 1.1q0.2 0 0.5 0.1c-1.3-2.3-2.2-4.7-3.8-6.8-5.2-7.3-15.8-9.2-20.9-16.5-1.2-1.9-2-3.9-2.8-6-0.8-2.2-1.6-4.4-1.7-6.7 0-3 1-5.9 2.4-8.6q1.6-3.2 3.7-6.1 0.7-1 1.6-2c-1.5 0.3-2.8 0.7-4 1.5-2.4 1.4-3.9 3.9-5 6.4-2 4.3-3 9.1-3 13.8z"/>
		<path id="&lt;Path&gt;" class="s5" d="m228.1 378.4c0.3 1 1.4 1.7 2.4 2 1 0.3 2.2 0.4 3.2 0.6 3.5 1 5.8 4.2 8.3 6.8 0.8 0.8 1.6 1.5 2.6 1.9 1.6 0.6 3.4 0.2 4.9-0.3 2.8-1 5.4-2.5 7.6-4.5 1-0.8 1.9-1.8 2.6-2.9-2-4.1-3-8.4-3.2-12.3-1.6-1.4-3.4-2.5-5.3-3.5q-2.1-1.3-4.3-2.5c-1.6-0.9-3.3-1.8-5-1.5l2.7 0.4c-2.4 0-4.9 0.2-7.2 1.1-2.3 0.8-4.4 2.3-5.7 4.4-1.1 2-1.5 4.2-2.5 6.3-0.6 1.2-1.5 2.6-1.1 4z"/>
		<path id="&lt;Path&gt;" class="s0" d="m238.1 376.2c1.4 2 2.8 4.2 5 4.9 1.5 0.5 3.2 0.3 4.7 0.3 1.6 0.1 3.4 0.6 4.1 2 0.4 1 0.3 2.1-0.2 3.1-0.4 0.9-1.2 1.7-1.9 2.4q-1.6 1.4-3.3 2.6c-1.3 0.8-3 1.6-4.3 0.8-0.8-0.6-1.1-1.7-1.5-2.7-0.9-2.5-2.4-4.9-4.4-6.8-0.6-0.5-1.5-1.1-2.2-0.7-0.3 0.1-0.5 0.4-0.7 0.7-0.5 0.9-0.7 1.9-0.7 2.9q-3-4.8-5.9-9.6c-0.2-0.4-0.4-0.8-0.4-1.2 0.1-0.5 0.5-0.8 1-1.1 1.6-0.9 4.2-1.8 6.1-1.5 2 0.4 3.5 2.3 4.6 3.9z"/>
		<path id="&lt;Path&gt;" class="s0" d="m274.9 401.5c3.3 1 6.9 0.4 10.3-0.2 0.1 2.1-1.2 4-2.8 5.4-0.6 0.5-1.2 1-2 1.4-1.4 0.6-3 0.5-4.5 0-1.5-0.4-2.8-1.2-4.1-2q-2.5-1.5-5-3c-0.5-0.3-0.9-0.6-1.3-0.9-0.9-1.1-0.9-2.7-0.4-4 0.1-0.3 0.3-0.7 0.6-1 0.4-0.3 0.9-0.4 1.5-0.3 1.4 0.3 2.5 1.7 3.7 2.6 1.2 0.8 2.6 1.6 4 2z"/>
		<path id="&lt;Path&gt;" class="s0" d="m194.9 327.6c0.1 1.4-0.8 2.8-2.1 3.2-1.2 0.4-2.6 0-3.7-0.5-2-0.9-3.7-2.1-5.7-3-6.4-2.9-14.1-1.8-20.4 1.5-6.2 3.3-11.1 8.7-15.3 14.4-2 2.9-3.9 5.8-5.8 8.8-2.9 4.5-5.9 9.2-7 14.4-0.3-5.1 0.9-10.2 2.8-15 1.9-4.8 4.5-9.2 7.1-13.6 1.6-2.7 3.2-5.4 5.2-7.8 5-6 12.2-9.9 19.9-10.8 3.7-0.5 7.5-0.2 11.1 0.7q2.8 0.7 5.4 1.9c1.7 0.8 3.2 2.1 4.9 2.9 1.5 0.7 3.3 0.8 3.6 2.9z"/>
		<path id="&lt;Path&gt;" class="s0" d="m120.1 332.5c0.4 1.1-0.2 2.3-1.2 3-0.9 0.6-2.1 0.7-3.2 0.8-2.1 0.3-4.3 0.5-6.3 0-0.3 0-0.6-0.1-0.9-0.4-0.7-0.5-0.7-1.4-0.7-2.3 0-0.3 0-0.6 0.1-0.8 0.3-0.4 0.8-0.6 1.3-0.7 1.9-0.4 3.8-0.6 5.7-0.9 1.6-0.3 4.4-0.5 5.2 1.3z"/>
		<path id="&lt;Path&gt;" class="s0" d="m313.4 277.5c0 2.5 2 4.5 4.5 4.5 2.5 0 4.5-2 4.5-4.5 0-2.5-2-4.6-4.5-4.6-2.5 0-4.5 2.1-4.5 4.6z"/>
		<path id="&lt;Path&gt;" class="s0" d="m280.6 269.5c0 2.5 2.1 4.6 4.6 4.6 2.6 0 4.6-2.1 4.6-4.6 0-2.5-2-4.6-4.6-4.6-2.5 0-4.6 2.1-4.6 4.6z"/>
		<path id="&lt;Path&gt;" class="s6" d="m309.4 295.9c0 2.6 2.2 4.8 4.8 4.8 2.7 0 4.9-2.2 4.9-4.8 0-2.7-2.2-4.9-4.9-4.9-2.6 0-4.8 2.2-4.8 4.9z"/>
		<path id="&lt;Path&gt;" class="s6" d="m302.7 279.3c0 1.8 1.5 3.3 3.3 3.3 1.8 0 3.3-1.5 3.3-3.3 0-1.9-1.5-3.3-3.3-3.3-1.8 0-3.3 1.4-3.3 3.3z"/>
		<path id="&lt;Path&gt;" class="s4" d="m330.7 326.6c5.2 1 9 2.3 9 2.3 0 0 2.3-10.4 2-25.6-0.2-15.3-8.9-29.6-8.9-29.6-3.1-3.9-7.3-8.1-12.1-12.2 0.8 1.4 1.4 2.6 1.7 3.5 2.8 6.9 5.2 13.9 7.2 21.1q1.6 6.1 2.9 12.4c0.8 3.9 1.5 7.9 1.3 11.9-0.1 3.5-0.8 6.9-1.6 10.3-0.4 2-0.8 4-1.5 5.9z"/>
		<path id="&lt;Path&gt;" class="s4" d="m302.8 349.8q1.8 0.1 3.9 0.1c17.9-0.2 28.6 0.5 31-4.7 2.4-5.2-1-8.9-1-8.9l-15 0.8c-5.1 4-10.8 7.1-16.8 9.3-0.7 0.2-1.5 0.5-2 1.1-0.5 0.7-0.4 1.5-0.1 2.3z"/>
		<path id="&lt;Path&gt;" class="s3" d="m89.3 316.3c17.1-31.7 13.6-33.7 17.3-44.2 3.7-10.4 8.2-6.1 20.7-15.6 12.5-9.6 23.7-21.5 27.2-25.8 3.6-4.3 16.8-6.9 38.6-8.5 5.4-0.5 11.8-0.4 18.7 0.1-2.4 4.5-5.5 8.6-9.1 12.2-3 2.9-6.3 5.4-8.8 8.7-1.5 2-2.6 4.3-4.4 6.1-3.1 3.1-7.7 4.1-11.5 6.2-8.4 4.8-12.5 14.5-18.8 21.7-4.4 5-10 8.9-16.2 11.3-2.8 1.2-5.9 2-8.2 4-2.3 2.1-3.6 5.7-1.8 8.2 1.1 1.7 3.2 2.4 4.5 3.8 1.9 2.1 1.9 5.4 0.7 7.9-1.1 2.6-3.1 4.6-5.1 6.5-5.9 5.8-12 11.6-19.3 15.4 2 4.8 5.4 8.9 7.7 13.6 5 10.3 4.7 22.3 3 33.6-1.8 11.3-4.8 22.5-4.7 33.9 0 16.2 6.6 32.3 17.9 43.9 11.3 11.7 27.2 18.7 43.4 19.2 8.2 0.3 16.6-1.1 23.8-4.8 10.9-5.7 18.9-16.7 20.7-28.8 0.5-2.8 0.7-5.8 2.3-8.1 1.7-2.5 4.8-3.7 7.7-4.6 11.1-3.4 22.9-4.8 34.5-3.9 2.6 0.2 5.5 0.6 8.4 1.3-8 8.7-17.6 15.2-26.2 25.6-2.1 2.5-4.1 5.2-6 8.2-11.4 17.7-29.5 20.1-44.6 31.9-11 8.5-21.3 15.9-40.6 18.7-7.1 1-15.5 1.4-25.6 1-37.3-1.4-74.6-43.6-77.9-83.1q-0.5-5.3-0.4-10.7c0.2-36.6 16.5-76 32.1-104.9z"/>
		<path id="&lt;Path&gt;" class="s0" d="m197.2 348.4c3.3 6.1 5 12.8 7.5 19.1 7.8 20 23.8 36.5 43.5 45 3.5 1.5 7.2 2.8 10.6 4.6 2.9 1.5 6 4.4 5 7.6-0.6 1.9-2.6 3.1-4.4 4.1-9.7 5.2-18.7 10.9-27.4 17.5-8.8 6.7-18.3 13-28.9 16.3-9.2 2.9-19 3.6-28.4 1.9-5-0.8-9.8-2.3-14.6-4.1-9.1-3.4-18-8.1-24.1-15.6-7.2-8.8-9.8-20.6-9.3-31.9 0.4-11.3 3.6-22.3 7-33.1 1.5-4.8 3.1-9.6 5.3-14 5.4-10.5 14.6-18.4 24.2-25.2 3-2.1 6.1-4.2 9.7-5.1 10.1-2.7 19.8 4.5 24.3 12.9z"/>
		<path id="&lt;Path&gt;" class="s7" d="m134.3 425.6c0.7 2.6 1.3 5.2 2.3 7.6 1 2.5 2.2 4.8 3.7 7 4.2 6.2 10.4 10.9 17.1 14.4 4.1 2.2 8.5 3.9 13.1 4.6 4.6 0.6 9.5 0 13.6-2.4 2.6-1.5 4.8-3.7 6.5-6.3 1.4-2.2 2.4-4.7 2.2-7.2-0.3-2.8-2-5.2-3.8-7.3-2.1-2.4-4.4-4.6-6.9-6.8-2.4-2.1-5-4-7.6-5.9-1.8-1.3-3.5-2.5-5-4.1-1.8-1.9-3.1-4.1-4.4-6.3q-4.4-7.6-8.9-15.2-3.9-6.5-7.9-12.9c-0.9-1.5-1.9-3.7-3.2-5.3-1.4-1.7-3.1-2.8-5.4-1.8-7.1 3.1-9.5 15.6-9.7 22.3-0.2 8.7 2 17.2 4.3 25.6z"/>
		<path id="&lt;Path&gt;" class="s8" d="m163.4 348.9c0.4 7.3 2.6 14.6 6.3 20.9 0.4 0.8 0.9 1.6 1.1 2.5 0.2 0.7 0.1 1.5 0 2.2-0.1 2-0.1 4 0.3 6q0.2 0.8 0.4 1.6c0.8 2.5 2.4 4.7 4.2 6.7 4.3 4.8 9.9 8.5 16.1 10.4q0.2 0.1 0.4 0.2 0.6 0.1 1.1 0.3c-2.3 1.2-4.9 2.8-4.9 5.4 0 1.4 0.8 2.7 1.7 3.8 5.1 6.8 13.2 11.2 21.7 11.8-1.9 1.5-2.5 4.2-2 6.5 0.5 2.3 2.1 4.3 3.9 5.8 5.9 4.9 15.4 5.3 21.2 0.2 1.6-1.3 2.8-3 4.2-4.5 2.8-3 6.3-5.4 9.7-7.8q0.2-0.1 0.3-0.2c-17.8-7.8-32.9-21.4-42.7-38.2-5.4-9.3-9.2-19.6-15.7-28.1-4.9-6.4-11.3-12.7-19.9-12.7-2.7 0-5.9 0.9-7 3.5-0.5 1.1-0.5 2.4-0.4 3.7z"/>
		<path id="&lt;Path&gt;" class="s9" d="m163.4 348.9c0.4 7.3 2.6 14.6 6.3 20.9 0.4 0.8 0.9 1.6 1.1 2.5 0.2 0.7 0.1 1.5 0 2.2-0.1 2-0.1 4 0.3 6 0.3-4 1.5-7.8 3.3-11.3 1-1.8 2.3-3.6 4.2-4.5 2.5-1.3 5.5-0.8 8.1 0.3 6.4 2.7 11.2 8.9 12.2 15.8 1 6.8-1.8 14-7.1 18.4q-0.1 0.1-0.2 0.2 0.3 0 0.6 0 6.1-0.5 12.2-1c1.1-0.1 2.3-0.1 3.3 0.3 1.1 0.4 1.9 1.3 2.6 2.2q3.9 4.6 7.8 9.3c0.5 0.6 1.1 1.2 1.1 2 0 0.7-0.3 1.3-0.7 1.9-1.1 1.6-2.6 3.1-4.2 4.2q3.8-2.4 7.6-4.8c4.1 4.2 10 6.3 15.8 7 3.4 0.4 7.3 0.6 11.1 0.4q0.2-0.1 0.3-0.2c-17.8-7.8-32.9-21.4-42.7-38.2-5.4-9.3-9.2-19.6-15.7-28.1-4.9-6.4-11.3-12.7-19.9-12.7-2.7 0-5.9 0.9-7 3.5-0.5 1.1-0.5 2.4-0.4 3.7z"/>
		<path id="&lt;Path&gt;" class="s4" d="m252.3 455.2c10.2-12.2 21.7-19.2 30.4-30.5 10.4-13.7 9.8-30.5 9.8-30.5q-2.9 0.6-5.5 0.9c-0.1 1-0.1 2-0.2 3-0.6 4-2.6 7.5-4.6 10.9-4.1 7.1-8.2 14.1-13 20.7-3 4.1-6.2 7.9-9.1 12.1-2.9 4.2-5.4 8.7-7.8 13.4z"/>
		<path id="&lt;Path&gt;" class="s10" d="m264.7 370.3c0.2 5.1 3.2 9.8 7.5 12.6 0.9 0.6 2 1.1 3 1.5 5.8 2.7 12.2 4.3 18.5 4q0.1 0 0.3 0c2.4-0.1 4.7-0.5 7-1.3 1.4-0.4 2.7-1 3.9-1.7 1.5-0.9 2.8-2 3.9-3.4 2.2-2.8 3.6-6.3 4.4-9.9 0.7-2.8 1-5.9-0.2-8.6-0.6-1.2-1.4-2.3-2.3-3.4-1-1.2-2-2.5-3.3-3.3-1.4-0.8-3.1-1-4.7-1.1q-0.7 0-1.5 0-3.5-0.1-7-0.3c-4.3-0.2-8.6-1-12.8-1.1-3.3-0.1-7.5 1.4-10.2 3.1-4.3 2.7-6.8 7.9-6.5 12.9z"/>
		<path id="&lt;Path&gt;" class="s11" d="m299.3 365.2c0.2 1.8-0.5 3.5-1.3 5.2-0.6 1.2-1.3 2.4-2.1 3.5-1.8 2.1-4.5 3.5-7.3 3.7-3 0.2-6-0.9-8.8-2.2-0.9-0.4-1.9-0.9-2.7-1.7-0.7-0.7-1.1-1.5-1.5-2.4-0.9-1.8-1.5-3.8-1.4-5.8 0.1-2 1.1-4 2.8-5.1 1.1-0.6 2.3-0.8 3.6-0.9 2.9-0.2 5.8 0.2 8.6 0.7 2.3 0.4 4.7 0.8 6.9 1.2 1.8 0.3 3.1 2 3.2 3.8z"/>
		<path id="&lt;Path&gt;" class="s12" d="m293.7 388.4q0.1 0 0.3 0c2.4-0.1 4.7-0.5 7-1.3 1.4-0.4 2.7-1 3.9-1.7 1.5-0.9 2.8-2 3.9-3.4 2.2-2.8 3.6-6.3 4.4-9.9 0.7-2.8 1-5.9-0.2-8.6-0.6-1.2-1.4-2.3-2.3-3.4-1-1.2-2-2.5-3.3-3.3-1.4-0.8-3.1-1-4.7-1.1q-0.1 0.3 0 0.6c0.2 2.7 0.6 5.1 0.2 7.7-0.4 2.9-1.4 5.8-2.8 8.4-0.7 1.3-1.5 2.5-2.3 3.8q-1 1.5-2 3.1 2.3-0.2 4.5-1.1c0.1 0.8-0.1 1.5-0.3 2.2q-0.3 0.6-0.5 1.2c-1.3 2.5-3.1 4.7-5.3 6.4q-0.3 0.2-0.5 0.4z"/>
		<path id="&lt;Path&gt;" class="s13" d="m294 388.4c2.4-0.1 4.7-0.5 7-1.3 1.4-0.4 2.7-1 3.9-1.7 1.5-0.9 2.8-2 3.9-3.4 1.2-2.6 2.1-5.4 2.4-8.3 0.4-4.1-0.5-13.6-6.5-13.4 0.7 2.1 1.7 4 2.2 6.2 0.4 2.1 0.3 4.5-0.5 6.5-1 2.1-2.8 3.7-4.5 5.4q-1 1-1.9 2-0.3 0.6-0.5 1.2c-1.3 2.5-3.1 4.7-5.3 6.4q-0.1 0.2-0.2 0.4z"/>
		<path id="&lt;Path&gt;" class="s6" d="m278.7 244.8c0.5 1.5 1.7 2.8 3.2 3.3 1 0.4 2.1 0.4 3-0.2 0.4-0.4 0.7-0.9 1-1.5 1.2-2.1 2.7-3.9 4.2-5.8-2.6-1.4-5.2-2.7-7.6-3.9-0.4 1.4-1.1 2.6-2.1 3.7-0.8 0.9-1.7 1.7-1.9 2.9-0.1 0.5 0 1 0.2 1.5z"/>
		<path id="&lt;Path&gt;" class="s6" d="m202.7 243.8c-0.2 0.5-0.5 1.1-0.9 1.6-0.9 0.8-2.2 0.8-3.4 0.7-0.6 0-1.2 0-1.6-0.4-0.3-0.2-0.6-0.5-0.7-0.9-1.3-2.8-0.9-7.2 1.4-9.4 2.3-2.3 5.5-0.8 6.4 2.2 0.6 2.1-0.4 4.3-1.2 6.2z"/>
		<path id="&lt;Path&gt;" class="s6" d="m186.2 232.7c0.6 0.4 1.3 1 1.6 1.6 0.4 0.7 0.5 1.6 0.2 2.3-0.4 0.7-1.2 1.1-2 1.2-0.7 0.1-1.5 0-2.3-0.1q-3.3-0.6-6.7-0.7c-2.1-0.1-4.3-0.1-6.1 0.9-0.6 0.3-1.3 0.8-1.9 0.5-0.7-0.4-0.6-1.6 0-2.1 0.6-0.5 1.4-0.6 2.2-0.7 1.5-0.3 3.1-0.7 4.4-1.4 0.9-0.5 1.7-1.2 2.7-1.7 2.3-1.2 5.6-1.3 7.9 0.2z"/>
		<path id="&lt;Path&gt;" class="s0" d="m120.1 332.5c0.4 1.1-0.2 2.3-1.2 3-0.9 0.6-2.1 0.7-3.2 0.8-2.1 0.3-4.3 0.5-6.3 0-0.3 0-0.6-0.1-0.9-0.4-0.7-0.5-0.7-1.4-0.7-2.3 0-0.3 0-0.6 0.1-0.8 0.3-0.4 0.8-0.6 1.3-0.7 1.9-0.4 3.8-0.6 5.7-0.9 1.6-0.3 4.4-0.5 5.2 1.3z"/>
		<path id="&lt;Path&gt;" class="s0" d="m115.5 281.2c0.5 0.9 0.7 2 0.7 3 0.1 3.1-0.7 6.1-1.1 9.2-0.3 2.7-0.4 5.4-0.5 8.1-0.1 2.7-0.2 5.6 0.8 8.2 1.2 2.9 3.6 5.1 6.1 6.8 2.6 1.8 5.4 3.1 8 4.9-0.8 0.4-1.7 0.2-2.6 0.1-2.2-0.6-4.3-1.6-6.4-2.7-3.6-2-7.1-4.3-10.1-7.3-0.6-0.7-1.3-1.4-1.7-2.3-0.7-1.5-0.5-3.2-0.1-4.8 0.4-1.9 1.3-3.8 1.9-5.8 1.4-4.9 1.2-10.1 0.9-15.2 0-0.8-0.1-1.6 0.2-2.3 0.7-2.2 3-1.5 3.9 0.1z"/>
		<path id="&lt;Path&gt;" class="s0" d="m196 476.2c-15.6 4.3-22 3.1-36.3-3.8-11.1-5.5-21.6-12.9-29.3-22.7-8.5-10.7-13.9-24.6-12.3-38.4 0.7-4.7 2.6-9 3.8-13.7 1.5-6.4 2-12.8 2.3-19.2-1.4 6.2-2.6 12.6-4.7 18.5-0.9 3-2.3 5.8-3.4 8.9-3.7 9.5-2.4 20.2 0.8 29.6 6.6 19 23.1 33 41.3 40.4 14.6 6.2 23 7.2 37.8 0.4z"/>
		<path id="&lt;Path&gt;" class="s14" d="m353.1 311.7c0 0 3.9 9 0 22.2-3.8 13.3-10.2 23.2-10.2 23.2 0 0 42.8-14.3 54.5-20.2 11.7-5.8 29.6-9 31.9-13 2.4-4 9.5-25.4 13.7-41.9 0 0 12.1-47.2 16.5-79.1 0 0 12.3 0.4 20.3-12.4 7.9-12.8 14.7-19.2 18.4-32.8 3.7-13.5 4.8-24-4.4-25.7-9.2-1.8-22.7 3.8-29.9 13.2-7.2 9.3-8.9 17.6-4.7 22.1 4.2 4.4 15.6 2.8 13.3-7.2 0 0 7.1-5.1 13.4-6.3 0 0-6.1 11.5-12.8 17.1-6.7 5.7-14 6.4-20.5-0.4 0 0-7.6 5-7.1 11.1 0.6 6.1-2.1 14.4-2.1 14.4 0 0-1.1-13.7-0.7-26.2 0 0-8.8-6.8-18.6-10.6-9.8-3.8-17.2-8.6-15.7-19.7 0 0 13.6 14.6 24.5 12.7 11-1.8 10.2-20.3-1.5-26.2-11.7-5.9-27.3-8.3-32.5 5.3-5.1 13.6 3.8 21.6 7.2 33.6 3.4 11.9 7.8 31.7 30.7 33.7 0 0-4.2 20.8-9.7 41.1-5.5 20.4-21 64.7-21 64.7z"/>
		<path id="&lt;Path&gt;" class="s15" d="m489.2 117c0.6 1.5 0.6 3.2 0.6 4.9 0 0.8-0.1 1.5-0.5 2.2-0.4 0.7-1.1 1.1-1.9 1.5q-2.6 1.2-5.4 1.9c-1.6 0.4-3.2 0.6-4.8 1.1-2.1 0.7-4 1.9-5.8 3.1-5 3.4-10 6.9-14.1 11.3-4.1 4.4-7.4 9.7-8.6 15.6-0.9-5.9-2-11.7-1.8-17.6 0.2-6 1.8-12.1 5.7-16.5 3.5-4.1 8.6-6.4 13.7-8.1 3.6-1.2 7.3-2.1 10.9-3.2 1.3-0.5 3-1.5 4.4-1.4 1.4 0 3 1 4.2 1.6 1.4 0.9 2.7 2 3.4 3.6z"/>
		<path id="&lt;Path&gt;" class="s16" d="m471.6 98.8c2.5 1.7 4.1 4.6 4.3 7.7 0.1 0.7 0.1 1.4-0.1 2.1-0.5 1.5-1.8 2.5-3.3 3.1-1.5 0.6-3 0.8-4.6 1-2.8 0.4-5.7 1-8.2 2.3-1.6 0.8-3 1.9-4.4 2.9q-3 2.1-5.9 4.3c-1.3 0.8-2.5 1.7-3.6 2.7-2.2 2-4.2 4.7-3.9 7.7-1.6-2.6-3.2-5.3-4.2-8.2-0.5-1.3-0.8-2.7-0.7-4.1 0.1-1.4 0.7-2.8 1.4-4 2.8-5.1 6.9-9.4 11.8-12.4 2.2-1.3 4.5-2.3 6.6-3.7 2.3-1.5 4.1-3 6.8-3.1 2.9-0.1 5.5-0.1 8 1.7z"/>
		<path id="&lt;Path&gt;" class="s17" d="m459.6 54.4c0.3 3.5-0.2 7-0.8 10.4-1.3 6.9-3 13.6-4.7 20.4-0.5 2.2-1.1 4.4-1.7 6.6-0.5 1.4-0.9 2.8-1.8 4.1-0.8 1.3-2 2.4-3.2 3.5-6.1 5.6-12.4 11.3-16.4 18.5-2.2-10.6-1.8-21.8 0.3-32.5 2-10.7 5.5-21.1 9.5-31.3 0.9-2.4 1.9-4.7 3.2-6.8 1.2-2 2.9-3.8 5.1-4.6 6.9-2.5 10.1 6.6 10.5 11.7z"/>
		<path id="&lt;Path&gt;" class="s18" d="m339.4 266.4q0.2 2.9 0.9 5.6c0.6 2 1.4 4 2.3 6q3.9 9.2 8 18.2c0.2 0.3 0.3 0.6 0.6 0.7 0.4 0.1 0.7-0.2 1-0.5 2.7-2.7 4.7-6 6.8-9.2q0.4-0.7 0.8-1.3 0.9-1.5 1.9-3c0.2-0.5 0.5-0.9 0.5-1.4 0.1-0.5-0.1-1-0.4-1.4-2-4.3-5.5-7.6-8.9-10.9q5.9 5.1 11.4 10.7 0.8-1.1 1.7-2.2 4-5.4 7-11.5c0.3-0.5 0.5-0.9 0.5-1.4 0.1-1.2-1-2.2-2-2.9q-1.5-1-3-1.8c-2.8-1.5-5.8-2.7-8.8-3.9q-2.6-1-5.2-2.1 3.5 0.6 7 1.1c4.5 0.7 9.3 1.5 13.4 3.4q1.7 0.9 3.3 2.1c1.3-2 2.3-4.1 3.1-6.3 0.1-0.3 0.2-0.7 0.1-1-0.1-0.4-0.3-0.7-0.6-1-3.2-3.3-7.6-5-11.8-6.5-2.2-0.8-4.3-1.6-6.4-2.6-2.2-1.1-3.4-2.4-5.3-0.2-1.3 1.5-2.5 3.1-3.8 4.6q-1.1 1.5-2.3 2.9c-0.7 1-1.5 1.9-2.3 2.8q-0.6 0.6-1.2 1.1c-2.6 2.2-6 3.7-7.5 6.7-0.8 1.6-0.9 3.4-0.8 5.2z"/>
		<path id="&lt;Path&gt;" class="s19" d="m353.7 231.8c0.6 0.7 1.2 1.4 1.5 2.3 0.6 1.8-0.3 3.7-1.4 5.2-1.4 2.1-3.1 4-4.8 5.9q-3.1 3.3-6.1 6.6c-0.2 0.3-0.5 0.5-0.8 0.6-0.3 0.1-0.6 0.1-0.9 0.1q-3-0.4-5.8-1.3c-2.2-0.7-4.3-1.6-6.6-2.2-3.1-0.8-6.4-0.8-9.5-1.6-1.1-0.2-2.2-0.6-3.1-1.3-1.6-1.3-1.9-3.6-1.9-5.7 0.2-5.6 2.9-11 6.7-15.1 1.3-1.5 2.8-2.8 4.5-3.7 3-1.4 6.5-1.5 9.8-1.5 1.7 0 3.5 0 5.2 0.4 6.1 1.5 9.4 6.8 13.2 11.3z"/>
		<path id="&lt;Path&gt;" class="s20" d="m236.2 216.1c9.3 4.9 20.2 5.2 30.1 8.5 7.7 2.5 14.8 6.7 22.7 8.3 0.9-4.4 4.7-7.9 9-8.7q0.9-0.2 1.8-0.2c-2.5 3.6-5 8.1-3.7 12.3 1.3 3.7 5.2 5.9 9.1 6.8 0.7 0.1 1.4 0.2 2.1 0 0.6-0.2 1-0.6 1.5-1.1 1.5-1.5 2.8-3.2 3.9-5.1 0.3-0.5 0.6-1.1 0.6-1.7-0.1-0.5-0.3-0.9-0.5-1.4-1.9-3.3-4.3-6.4-7-9.1q-0.5-0.5-1.1-1 0-0.1-0.1-0.2 7.4 0 14.8 0.9c0.1-4.5-2.4-6.7-5.4-9.6-2.9-2.8-6-5.4-9.5-7.5-3.2-1.9-6.6-3.4-10.1-4.8-12-4.9-24.3-8.9-36.9-11.8q-3.4-0.8-6.9-1.5-7.2 13.5-14.4 26.9z"/>
		<path id="&lt;Path&gt;" class="s18" d="m296.1 236.3c1.3 3.7 5.2 5.9 9.1 6.8 0.7 0.1 1.4 0.2 2.1 0 0.6-0.2 1-0.6 1.5-1.1 1.5-1.5 2.8-3.2 3.9-5.1 0.3-0.5 0.6-1.1 0.6-1.7-0.1-0.5-0.3-0.9-0.5-1.4-1.9-3.3-4.3-6.4-7-9.1q-0.5-0.5-1.1-1c-1.7-0.7-3.5-1-5.2-0.4q-0.8 0.3-1.5 0.9 0.9-0.2 1.8-0.2c-2.5 3.6-5 8.1-3.7 12.3z"/>
		<path id="&lt;Path&gt;" class="s19" d="m174.5 213.4q2.5 0.6 5 0.8c3.6 0.5 7.2 0.6 10.8 0.7q19.7 0.6 39.5 1.1c9.5-19.3 22-37.1 31.8-56.3 1.7-3.5 3.4-7 6.1-9.8 2.5-2.5 5.7-4.2 9-5.7 3.4-1.6 7.1-2.9 10.9-3.6 2.3-0.5 6.2 0.3 8.1-0.8-1.3-2.5-7.3-3.7-9.8-4.3q-0.3-0.1-0.6-0.2c-6.8-1.6-13.8-2.1-20.7-2.5-7.7-0.6-15.6-1.1-22.9 1.3-8.3 2.6-15.1 8.7-20.5 15.5-5.3 6.8-9.5 14.5-14.3 21.8-5.4 8.3-11.7 16.1-17.9 23.9q-7.3 9.1-14.5 18.1z"/>
		<path id="&lt;Path&gt;" class="s21" d="m254.1 181.8c0.1 1 1.2 1.6 2.4 1.9 0.9 0.3 1.9 0.4 2.5 0.5q7.3 2 14.6 4.2 8.3 2.5 16.5 5.4 0.7 0.3 1.5 0.5c4.3 1.6 8.5 3.3 12.4 5.5 5.6 3.3 10.5 7.7 15.9 11.4 1.9 1.3 3.8 2.5 5.9 3.6 1 0.5 2 0.9 3 1 1 0 2-0.3 3-0.4 6-1.2 12.4 0.9 17.3 4.7 2.4 1.8 4.5 4 6.3 6.4 1.9 2.5 3.5 5.2 5 8 2.1 1.6 5.2 0.8 7-1.1 1.7-1.9 2.4-4.6 2.7-7.2 1-7.1 0.4-14.4-0.2-21.6-0.8-8.9-1.7-18.3-6.4-26-3.8-6.3-9.9-10.9-16.1-14.8q-0.4 2.9-0.7 5.8-0.3-0.4-0.6-0.7-1-1-1.9-1.9c-5.8-5.9-12.1-11.2-18.8-15.9-3.8-2.7-7.7-5.2-12.1-6.7-6-2-12.5-2-18.9-1.9h-0.3c-2.5 0.1-5.2 0.2-7.7 0.6-2.5 0.4-4.8 1.2-6.9 2.6-2.2 1.5-3.9 3.6-5.5 5.8q-8.9 11.6-16.5 24.1c-0.8 1.4-3.6 4.6-3.4 6.2z"/>
		<path id="&lt;Path&gt;" class="s22" d="m254.1 181.8c0.1 1 1.2 1.6 2.4 1.9 0.9 0.3 1.9 0.4 2.5 0.5q7.3 2 14.6 4.2 8.3 2.5 16.5 5.4 0.7 0.3 1.5 0.5c-2.6-2.9-5.4-5.8-8.5-8.2-1.8-1.5-3.7-2.8-5.3-4.5-3.4-3.6-5-8.6-4.7-13.5 0.3-4.9 2.3-9.7 5.2-13.6 2.4-3.1 8.3-7 8.1-11.4-2.5 0.4-4.8 1.2-6.9 2.6-2.2 1.5-3.9 3.6-5.5 5.8q-8.9 11.6-16.5 24.1c-0.8 1.4-3.6 4.6-3.4 6.2z"/>
		<path id="&lt;Path&gt;" class="s23" d="m249.9 203.9c0.4 1.9 2.4 3.1 4.2 3.8 6.5 2.8 13.3 4.4 20.1 6 3.4 0.8 6.8 1.7 10 3 3 1.2 5.7 2.8 8.7 4 3.1 1.3 6.2 2.2 9.4 3.1q1.8 0.4 3.5 0.9-0.6-0.6-1.2-1.2 7.4 0 14.8 0.9c0.1-4.5-2.4-6.7-5.4-9.6-2.9-2.8-6-5.4-9.5-7.5-3.2-1.9-6.6-3.4-10.1-4.8-12-4.9-24.3-8.9-36.9-11.8-0.9 1-1.7 2.2-2.5 3.3q-1.9 2.7-3.7 5.4c-0.9 1.3-1.8 2.9-1.4 4.5z"/>
		<path id="&lt;Path&gt;" class="s21" d="m174.5 213.4q2.5 0.6 5 0.8c7-8.2 10.8-18.9 17.8-27.2 2.9-3.4 6.3-6.4 9-10.1 2.5-3.5 4.3-7.4 6.5-11.1 3-5.3 6.7-10 10.4-14.7 5.4-6.7 11.4-13.7 19.8-15.8 4.9-1.2 10.1-0.6 15.1 0 4 0.4 18.7 2.4 27.2 0-6.8-1.6-13.8-2.1-20.7-2.5-7.7-0.6-15.6-1.1-22.9 1.3-8.3 2.6-15.1 8.7-20.5 15.5-5.3 6.8-9.5 14.5-14.3 21.8-5.4 8.3-11.7 16.1-17.9 23.9q-7.3 9.1-14.5 18.1z"/>
		<path id="&lt;Path&gt;" class="s24" d="m319.3 209.5q0.2 0.9 0.6 1.7c1.9 1.3 3.8 2.5 5.9 3.6 1 0.5 2 0.9 3 1 1 0 2-0.3 3-0.4 6-1.2 12.4 0.9 17.3 4.7 2.4 1.8 4.5 4 6.3 6.4 1.9 2.5 3.5 5.2 5 8 2.1 1.6 5.2 0.8 7-1.1 1.7-1.9 2.4-4.6 2.7-7.2 1-7.1 0.4-14.4-0.2-21.6-0.8-8.9-1.7-18.3-6.4-26-3.8-6.3-9.9-10.9-16.1-14.8q-0.4 2.9-0.7 5.8-0.3-0.4-0.6-0.7-1-1-1.9-1.9c0.9 5.9 1.9 11.8 1.6 17.9-0.3 5.4-1.4 10.6-3.6 15.5-1 2.2-2.3 4.4-4.2 6-4.9 4.3-12.2 3.8-18.7 3.1z"/>
		<path id="&lt;Path&gt;" class="s25" d="m254.1 181.8c0.1 1 1.2 1.6 2.4 1.9 6.3-8.4 13.6-16 20.9-23.6q4.3-4.6 8.7-9.1c1.7-1.8 5.8-5 8.3-8.5h-0.3c-5 0.1-10.4 0.3-14.6 3.2-2.2 1.5-3.9 3.6-5.5 5.8q-8.9 11.6-16.5 24.1c-0.8 1.4-3.6 4.6-3.4 6.2z"/>
		<path id="&lt;Path&gt;" class="s26" d="m348.9 253.4q0.4 0.4 0.9 0.7c5.4 3.9 12 6 18.7 6-2.8-1.5-5.8-2.7-8.8-3.9q-2.6-1-5.2-2.1 3.5 0.6 7 1.1c4.5 0.7 9.3 1.5 13.4 3.4 0-0.5-0.2-1.1-0.6-1.5-0.6-0.6-1.4-1-2.2-1.3q-5.5-2.3-11.1-4.1c-1.9-0.6-3.8-1.1-5.4-2.2-0.7-0.4-1.5-1.1-2.1-1.8q-1.1 1.5-2.3 2.9c-0.7 1-1.5 1.9-2.3 2.8z"/>
		<path id="&lt;Path&gt;" class="s26" d="m347.1 265.1c0.1 1.9 1.4 3.5 2.7 4.9q2.2 2.6 4.4 5.1c1.1 1.3 2.2 2.6 3.1 4.1 1.3 2 2 4.3 2.5 6.7q0.9-1.5 1.9-3c0.2-0.5 0.5-0.9 0.5-1.4 0.1-0.5-0.1-1-0.4-1.4-2-4.3-5.5-7.6-8.9-10.9q5.9 5.1 11.4 10.7 0.8-1.1 1.7-2.2-0.5-0.4-0.9-0.8-2.1-2.1-4.1-4.3-2.2-2.4-4.2-5c-1.1-1.5-2.1-3.1-3.7-4.2-1.2-0.8-2.8-1.2-4.3-1.2-0.3 0-0.5 0.1-0.8 0.2-0.3 0.2-0.5 0.6-0.7 1q-0.2 0.8-0.2 1.7z"/>
		<path id="&lt;Path&gt;" class="s27" d="m355.9 189.3c5.1 11.6 4.9 25.4-0.4 36.9q0 0.1-0.1 0.3c1.9 2.5 3.5 5.2 5 8 2.1 1.6 5.2 0.8 7-1.1 1.7-1.9 2.4-4.6 2.7-7.2 1-7.1 0.4-14.4-0.2-21.6-0.8-8.9-1.7-18.3-6.4-26-3.8-6.3-9.9-10.9-16.1-14.8q-0.4 2.9-0.7 5.8-0.3-0.4-0.6-0.7c0.4 1.6 1 3.1 1.5 4.4 2.4 5.5 5.9 10.5 8.3 16z"/>
		<path id="&lt;Path&gt;" class="s26" d="m145.1 379.5c0.2 0.7 0.5 1.4 0.7 2.1 3.8 10.1 8.8 19.3 14.1 28.6 3 5.2 5.9 10.5 8.4 16 1.2 2.9 2.4 5.8 4.3 8.4 0.3-1.9 0.7-3.9 2.2-5.1 0.7-0.5 1.6-0.7 2.5-0.9 1.6-0.2 3.3 0.1 4.8 0.6-2.4-2.1-5-4-7.6-5.9-1.8-1.3-3.5-2.5-5-4.1-1.8-1.9-3.1-4.1-4.4-6.3q-4.4-7.6-8.9-15.2-3.9-6.5-7.9-12.9c-0.9-1.5-1.9-3.7-3.2-5.3z"/>
	</g>
</svg>